<?xml version="1.0" encoding="UTF-8"?>
<svg id="Layer_1" data-name="Layer 1" xmlns="http://www.w3.org/2000/svg" viewBox="0 0 64 64">
  <defs>
    <style>
      .cls-1 {
        stroke-width: 0px;
      }
    </style>
  </defs>
  <path class="cls-1" d="m53.35,35.78l-3.8,3.51c.03-.24.08-.48.1-.72l1.26-14.72c.06-.64.06-1.28.03-1.91,6.19,3.24,10.61-1.51,10.7-1.51-2.44-2.14-5.15-3.04-7.62-3.32,6.57-3.03,6.05-9.87,6.12-9.94-5.96.63-9.82,4.31-12.02,7.31-.95-1.12-2.12-2.02-3.44-2.58l-9.74-4.12c-1.89-.8-3.98-.8-5.88,0l-9.74,4.12c-4.12,1.74-6.68,6.65-6.23,11.94l1.26,14.72c.02.23.06.44.1.66l-3.74-3.45c-1.41-1.3-3.6-1.21-4.89.2-1.3,1.41-1.21,3.6.2,4.89l5.07,4.67c-2.1,2.49-3.37,5.7-3.37,9.2v2.85c0,.83.67,1.5,1.5,1.5s1.5-.67,1.5-1.5v-2.85c0-4.32,2.44-8.08,6.02-9.98.84,1.06,1.86,1.92,3.03,2.49l9.33,4.53c.94.46,1.93.68,2.91.68s1.97-.23,2.91-.68l9.33-4.53c1.18-.57,2.2-1.44,3.04-2.5,3.6,1.89,6.06,5.66,6.06,10v2.85c0,.83.67,1.5,1.5,1.5s1.5-.67,1.5-1.5v-2.85c0-3.5-1.27-6.71-3.37-9.2l5.07-4.67c1.41-1.3,1.49-3.49.2-4.89-1.3-1.41-3.49-1.49-4.89-.2Zm-22.95,13.3l-9.33-4.53c-2.02-.98-3.48-3.43-3.72-6.24l-1.26-14.72c-.34-3.95,1.52-7.7,4.41-8.92l9.74-4.12c.58-.25,1.17-.37,1.77-.37s1.19.12,1.77.37l9.74,4.12c2.89,1.22,4.75,4.98,4.41,8.92l-1.26,14.72c-.24,2.81-1.7,5.26-3.72,6.24l-9.33,4.53c-1.03.5-2.17.5-3.21,0Z"/>
  <path class="cls-1" d="m23.86,32.84l6.61-3.07c1-.47,2.11-.47,3.11,0l6.61,3.07c2.91,1.35,6.01-1.34,6.01-5.22v-1.67c0-3.08-2-5.57-4.46-5.57h-19.44c-2.46,0-4.46,2.49-4.46,5.57v1.67c0,3.88,3.1,6.57,6.01,5.22Zm13.13-6.85l3.03-1.2c.77-.31,1.64.07,1.95.84.3.77-.07,1.64-.84,1.95l-3.03,1.2c-.18.07-.37.11-.55.11-.6,0-1.16-.36-1.39-.95-.3-.77.07-1.64.84-1.95Zm-14.9-.35c.31-.77,1.18-1.15,1.95-.84l3.03,1.2c.77.3,1.15,1.18.84,1.95-.23.59-.8.95-1.39.95-.18,0-.37-.03-.55-.11l-3.03-1.2c-.77-.3-1.15-1.18-.84-1.95Z"/>
</svg>