<?xml version="1.0" encoding="UTF-8"?>
<svg id="Layer_1" data-name="Layer 1" xmlns="http://www.w3.org/2000/svg" viewBox="0 0 64 64">
  <defs>
    <style>
      .cls-1 {
        stroke-width: 0px;
      }
    </style>
  </defs>
  <path class="cls-1" d="m6.15,51.32l25.3,9.96s.02,0,.02,0c.16.06.34.1.53.1s.36-.04.53-.1c0,0,.02,0,.02,0l25.3-9.96c.57-.23.95-.78.95-1.4v-19.92s0-.02,0-.04c0-.12-.02-.23-.05-.35,0-.03-.02-.06-.03-.09,0-.02-.01-.04-.02-.07-.04-.1-.09-.2-.15-.28,0-.01-.02-.02-.03-.03-.07-.1-.15-.18-.24-.26-.02-.02-.05-.04-.07-.06-.1-.08-.22-.15-.34-.2,0,0-.01,0-.02-.01l-11.48-4.52c-.77-.3-1.64.07-1.95.85-.07.18-.1.37-.1.55,0,.6.36,1.16.95,1.39l7.94,3.13-21.21,8.35-21.21-8.35,7.83-3.08c.59-.23.95-.8.95-1.4,0-.18-.03-.37-.1-.55-.3-.77-1.18-1.15-1.95-.85l-11.38,4.48s-.01,0-.02,0c-.12.05-.23.12-.34.2-.02.02-.05.04-.07.06-.09.08-.17.16-.24.26,0,.01-.02.02-.03.03-.06.09-.11.18-.15.29,0,.02-.01.04-.02.07-.01.03-.02.06-.03.09-.03.12-.05.23-.05.35,0,.01,0,.02,0,.04v19.92c0,.62.38,1.17.95,1.4Zm2.05-19.12l22.3,8.78v16.7l-22.3-8.78v-16.7Zm25.3,25.48v-16.7l22.3-8.78v16.7l-22.3,8.78Z"/>
  <path class="cls-1" d="m32,33.58l8.36-8.08,11.37-10.99-7.14-7.14h-25.19l-7.14,7.14,11.4,11.02,8.33,8.06Zm-4.5-19.71c0-.83.67-1.5,1.5-1.5h6c.83,0,1.5.67,1.5,1.5s-.67,1.5-1.5,1.5h-6c-.83,0-1.5-.67-1.5-1.5Z"/>
</svg>