<?xml version="1.0" encoding="UTF-8"?>
<svg id="Layer_1" data-name="Layer 1" xmlns="http://www.w3.org/2000/svg" viewBox="0 0 64 64">
  <defs>
    <style>
      .cls-1 {
        stroke-width: 0px;
      }
    </style>
  </defs>
  <path class="cls-1" d="m46.86,32l9.91-9.91c1.55-1.55,1.55-4.08,0-5.63l-9.22-9.22c-1.55-1.55-4.08-1.55-5.63,0l-9.91,9.91-9.91-9.91c-1.55-1.55-4.08-1.55-5.63,0l-9.22,9.22c-1.55,1.55-1.55,4.08,0,5.63l9.91,9.91-9.91,9.91c-1.55,1.55-1.55,4.08,0,5.63l9.22,9.22c.78.78,1.8,1.16,2.82,1.16s2.04-.39,2.82-1.17l9.91-9.91,9.91,9.91c.78.78,1.8,1.17,2.82,1.17s2.04-.39,2.82-1.17l9.22-9.22c1.55-1.55,1.55-4.08,0-5.63l-9.91-9.91Zm7.79,13.43l-9.22,9.22c-.38.38-1.01.38-1.39,0l-9.91-9.91,10.62-10.62,9.91,9.91c.38.38.38,1.01,0,1.39Zm-36.08,9.22l-9.22-9.22c-.38-.38-.38-1.01,0-1.39L44.03,9.35c.19-.19.44-.29.7-.29s.5.1.7.29l9.22,9.22c.38.38.38,1.01,0,1.39L19.97,54.65c-.38.38-1.01.38-1.39,0ZM9.35,18.57l9.22-9.22c.19-.19.44-.29.7-.29s.5.1.7.29l9.91,9.91-10.62,10.62-9.91-9.91c-.38-.38-.38-1.01,0-1.39Z"/>
  <rect class="cls-1" x="20.96" y="27.2" width="22.07" height="9.59" rx="1.43" ry="1.43" transform="translate(-13.25 32) rotate(-45)"/>
</svg>