<?xml version="1.0" encoding="UTF-8"?>
<svg id="Layer_1" data-name="Layer 1" xmlns="http://www.w3.org/2000/svg" viewBox="0 0 64 64">
  <defs>
    <style>
      .cls-1 {
        stroke-width: 0px;
      }
    </style>
  </defs>
  <path class="cls-1" d="m6.75,60.57h50.5c.83,0,1.5-.67,1.5-1.5V12.35c0-.7-.48-1.3-1.16-1.46L25.67,3.47c-.44-.1-.91,0-1.27.29-.36.28-.57.72-.57,1.17v23.42H6.75c-.83,0-1.5.67-1.5,1.5v29.21c0,.83.67,1.5,1.5,1.5ZM55.75,13.54v44.03h-8.38v-9.96c0-.89-.72-1.61-1.61-1.61h-8.94c-.89,0-1.61.72-1.61,1.61v9.96h-8.38V6.82l28.92,6.72Zm-31.92,27.42h-11.25c-.83,0-1.5-.67-1.5-1.5s.67-1.5,1.5-1.5h11.25v3Zm-11.25,6.74h11.25v3h-11.25c-.83,0-1.5-.67-1.5-1.5s.67-1.5,1.5-1.5Z"/>
  <path class="cls-1" d="m31.34,20.12h2.51c.83,0,1.5-.67,1.5-1.5s-.67-1.5-1.5-1.5h-2.51c-.83,0-1.5.67-1.5,1.5s.67,1.5,1.5,1.5Z"/>
  <path class="cls-1" d="m31.34,30.47h2.51c.83,0,1.5-.67,1.5-1.5s-.67-1.5-1.5-1.5h-2.51c-.83,0-1.5.67-1.5,1.5s.67,1.5,1.5,1.5Z"/>
  <path class="cls-1" d="m33.85,37.96h-2.51c-.83,0-1.5.67-1.5,1.5s.67,1.5,1.5,1.5h2.51c.83,0,1.5-.67,1.5-1.5s-.67-1.5-1.5-1.5Z"/>
  <path class="cls-1" d="m40.03,20.12h2.51c.83,0,1.5-.67,1.5-1.5s-.67-1.5-1.5-1.5h-2.51c-.83,0-1.5.67-1.5,1.5s.67,1.5,1.5,1.5Z"/>
  <path class="cls-1" d="m42.54,27.47h-2.51c-.83,0-1.5.67-1.5,1.5s.67,1.5,1.5,1.5h2.51c.83,0,1.5-.67,1.5-1.5s-.67-1.5-1.5-1.5Z"/>
  <path class="cls-1" d="m42.54,37.96h-2.51c-.83,0-1.5.67-1.5,1.5s.67,1.5,1.5,1.5h2.51c.83,0,1.5-.67,1.5-1.5s-.67-1.5-1.5-1.5Z"/>
  <path class="cls-1" d="m48.73,20.12h2.51c.83,0,1.5-.67,1.5-1.5s-.67-1.5-1.5-1.5h-2.51c-.83,0-1.5.67-1.5,1.5s.67,1.5,1.5,1.5Z"/>
  <path class="cls-1" d="m48.73,30.47h2.51c.83,0,1.5-.67,1.5-1.5s-.67-1.5-1.5-1.5h-2.51c-.83,0-1.5.67-1.5,1.5s.67,1.5,1.5,1.5Z"/>
  <path class="cls-1" d="m48.73,40.96h2.51c.83,0,1.5-.67,1.5-1.5s-.67-1.5-1.5-1.5h-2.51c-.83,0-1.5.67-1.5,1.5s.67,1.5,1.5,1.5Z"/>
</svg>