<?xml version="1.0" encoding="UTF-8"?>
<svg id="Layer_1" data-name="Layer 1" xmlns="http://www.w3.org/2000/svg" viewBox="0 0 64 64">
  <defs>
    <style>
      .cls-1 {
        stroke-width: 0px;
      }
    </style>
  </defs>
  <path class="cls-1" d="m37.19,10.37c-1.15-1.76-3.09-2.82-5.19-2.82s-4.04,1.05-5.19,2.82L3.06,46.88c-1.26,1.94-1.35,4.3-.25,6.33,1.1,2.03,3.14,3.24,5.44,3.24h47.5c2.31,0,4.34-1.21,5.44-3.24,1.1-2.03,1.01-4.39-.25-6.33L37.19,10.37Zm21.37,41.41c-.57,1.05-1.62,1.67-2.81,1.67H8.25c-1.19,0-2.24-.62-2.81-1.67-.57-1.05-.52-2.27.13-3.26L29.32,12h0c.6-.92,1.58-1.45,2.68-1.45s2.08.53,2.68,1.45l23.75,36.51c.65,1,.7,2.22.13,3.26Z"/>
  <path class="cls-1" d="m32,42.6c-.97,0-1.77.31-2.42.92-.65.61-.97,1.4-.97,2.36s.32,1.74.97,2.36c.65.61,1.45.92,2.42.92s1.77-.31,2.42-.92c.65-.61.97-1.4.97-2.36s-.32-1.74-.97-2.36-1.45-.92-2.42-.92Z"/>
  <path class="cls-1" d="m30.29,39.93h3.52c.38,0,.69-.3.7-.67l.71-16.33c.02-.4-.3-.73-.7-.73h-4.93c-.4,0-.72.33-.7.73l.71,16.33c.02.38.33.67.7.67Z"/>
</svg>