<?xml version="1.0" encoding="UTF-8"?>
<svg id="Layer_1" data-name="Layer 1" xmlns="http://www.w3.org/2000/svg" viewBox="0 0 64 64">
  <defs>
    <style>
      .cls-1 {
        stroke-width: 0px;
      }
    </style>
  </defs>
  <path class="cls-1" d="m55.75,6.62H8.25c-3.09,0-5.6,2.51-5.6,5.6v39.56c0,3.09,2.51,5.6,5.6,5.6h5.79c.83,0,1.5-.67,1.5-1.5h0c0-.83-.67-1.5-1.5-1.5h-5.79c-1.43,0-2.6-1.17-2.6-2.6v-31.67h52.7v31.67c0,1.43-1.17,2.6-2.6,2.6h-5.51c-.83,0-1.5.67-1.5,1.5h0c0,.83.67,1.5,1.5,1.5h5.51c3.09,0,5.6-2.51,5.6-5.6V12.22c0-3.09-2.51-5.6-5.6-5.6Zm-.1,7.24c0,.83-.67,1.5-1.5,1.5h-.62c-.83,0-1.5-.67-1.5-1.5s.67-1.5,1.5-1.5h.62c.83,0,1.5.67,1.5,1.5Zm-6.42,0c0,.83-.67,1.5-1.5,1.5h-.62c-.83,0-1.5-.67-1.5-1.5s.67-1.5,1.5-1.5h.62c.83,0,1.5.67,1.5,1.5Z"/>
  <path class="cls-1" d="m45.12,53.76l-1.47-1.47c-.22-.22-.27-.57-.12-.85.34-.66.63-1.35.85-2.07.1-.3.37-.51.69-.51h2.08c.4,0,.72-.32.72-.72v-5.36c0-.4-.32-.72-.72-.72h-2.08c-.32,0-.59-.21-.69-.51-.23-.72-.51-1.41-.85-2.07-.15-.28-.1-.62.12-.85l1.47-1.47c.28-.28.28-.74,0-1.02l-3.79-3.79c-.28-.28-.74-.28-1.02,0l-1.47,1.47c-.22.22-.57.27-.85.12-.66-.34-1.35-.63-2.07-.85-.3-.1-.51-.37-.51-.69v-2.08c0-.4-.32-.72-.72-.72h-5.36c-.4,0-.72.32-.72.72v2.08c0,.32-.21.59-.51.69-.72.23-1.41.51-2.07.85-.28.15-.62.1-.85-.12l-1.47-1.47c-.28-.28-.74-.28-1.02,0l-3.79,3.79c-.28.28-.28.74,0,1.02l1.47,1.47c.22.22.27.57.12.85-.34.66-.63,1.35-.85,2.07-.1.3-.37.51-.69.51h-2.08c-.4,0-.72.32-.72.72v5.36c0,.4.32.72.72.72h2.08c.32,0,.59.21.69.51.23.72.51,1.41.85,2.07.15.28.1.62-.12.85l-1.47,1.47c-.28.28-.28.74,0,1.02l1.1,1.1,2.69,2.69c.28.28.74.28,1.02,0l1.47-1.47c.22-.22.57-.27.85-.12.66.34,1.35.63,2.07.85.3.1.51.37.51.69v2.08c0,.4.32.72.72.72h5.36c.4,0,.72-.32.72-.72v-2.08c0-.32.21-.59.51-.69.72-.23,1.41-.51,2.07-.85.28-.15.62-.1.85.12l1.47,1.47c.28.28.74.28,1.02,0l2.69-2.69,1.1-1.1c.28-.28.28-.74,0-1.02Zm-13.12-14.82c3.77,0,6.82,3.05,6.82,6.82s-3.05,6.82-6.82,6.82-6.82-3.05-6.82-6.82,3.05-6.82,6.82-6.82Z"/>
</svg>