<?xml version="1.0" encoding="UTF-8"?>
<svg id="Layer_1" data-name="Layer 1" xmlns="http://www.w3.org/2000/svg" viewBox="0 0 64 64">
  <defs>
    <style>
      .cls-1 {
        stroke-width: 0px;
      }
    </style>
  </defs>
  <path class="cls-1" d="m31.62,5.23c-13.28.2-24.08,11.4-24.08,24.98v20.75c0,1.92,1.1,3.58,2.87,4.32,1.77.74,3.72.37,5.1-.97.65-.64,1.71-.64,2.36,0l3.2,3.13c.9.89,2.09,1.33,3.28,1.33s2.38-.44,3.28-1.33l3.19-3.13c.65-.64,1.71-.64,2.36,0l3.19,3.13c1.81,1.77,4.75,1.77,6.56,0l3.2-3.13c.65-.64,1.71-.64,2.36,0,1.37,1.34,3.32,1.72,5.1.97,1.77-.74,2.87-2.4,2.87-4.32v-21.27c0-6.53-2.54-12.67-7.16-17.29-4.72-4.72-11-7.27-17.68-7.17Zm21.84,45.73c0,1.04-.79,1.45-1.03,1.56-.24.1-1.09.38-1.84-.35-1.81-1.77-4.75-1.77-6.56,0l-3.2,3.13c-.65.64-1.71.64-2.36,0l-3.19-3.13c-1.81-1.77-4.75-1.77-6.56,0l-3.19,3.13c-.65.64-1.71.64-2.36,0l-3.2-3.13c-.9-.88-2.09-1.33-3.28-1.33s-2.38.44-3.28,1.33c-.74.73-1.59.45-1.83.35-.24-.1-1.03-.51-1.03-1.56v-20.75c0-11.94,9.48-21.8,21.13-21.98,5.9-.11,11.37,2.14,15.51,6.29,4.05,4.05,6.28,9.44,6.28,15.17v21.27Z"/>
  <circle class="cls-1" cx="40.96" cy="27.88" r="4.75" transform="translate(-3.94 6.92) rotate(-9.22)"/>
  <circle class="cls-1" cx="23.04" cy="27.88" r="4.75"/>
  <ellipse class="cls-1" cx="32" cy="40.71" rx="3.51" ry="5.33"/>
</svg>