<?xml version="1.0" encoding="UTF-8"?>
<svg id="uuid-b1eccd56-d43c-4c13-9719-9c181622e6b1" data-name="Ebene 2" xmlns="http://www.w3.org/2000/svg" width="73.02mm" height="7.09mm" viewBox="0 0 207 20.09">
  <g id="uuid-ef2365ec-190c-42d8-81bc-6fee4b2f96b3" data-name="Ebene 1">
    <g>
      <path d="M4.81,19.7V6.11H0v-2.51h12.37v2.51h-4.81v13.59h-2.76Z" style="fill: #1d1d1b; stroke-width: 0px;"/>
      <path d="M17.75,19.7V3.61h2.78v6.76h6.35V3.61h2.78v16.1h-2.78v-6.81h-6.35v6.81h-2.78Z" style="fill: #1d1d1b; stroke-width: 0px;"/>
      <path d="M37.44,19.7V3.61h6.88c1.01,0,1.89.18,2.64.53s1.34.85,1.76,1.48c.42.64.63,1.4.63,2.29v.25c0,1-.24,1.79-.71,2.39-.48.6-1.05,1.04-1.72,1.31v.37c.6.03,1.07.24,1.41.62.34.38.52.9.52,1.54v5.31h-2.76v-4.92c0-.38-.1-.69-.31-.93-.21-.24-.54-.36-1-.36h-4.55v6.21h-2.78ZM40.22,10.99h3.82c.8,0,1.42-.21,1.87-.63s.68-.99.68-1.69v-.21c0-.72-.22-1.29-.67-1.71s-1.07-.63-1.89-.63h-3.82v4.88Z" style="fill: #1d1d1b; stroke-width: 0px;"/>
      <path d="M56.57,19.7V3.61h10.26v2.51h-7.47v4.23h6.83v2.51h-6.83v4.35h7.59v2.51h-10.37Z" style="fill: #1d1d1b; stroke-width: 0px;"/>
      <path d="M72.83,19.7l4.42-16.1h4.81l4.42,16.1h-2.85l-.97-3.68h-6l-.97,3.68h-2.85ZM77.29,13.49h4.71l-2.16-8.16h-.39l-2.16,8.16Z" style="fill: #1d1d1b; stroke-width: 0px;"/>
      <path d="M95.85,19.7V3.09h-5.93V.39h14.85v2.7h-5.93v16.61h-2.98Z" style="fill: #1d1d1b; stroke-width: 0px;"/>
      <path d="M115.69,20.09c-1.45,0-2.74-.26-3.86-.77-1.12-.51-2-1.27-2.64-2.28-.63-1-.95-2.22-.95-3.66v-.69h2.95v.69c0,1.36.41,2.38,1.23,3.06.82.68,1.91,1.02,3.27,1.02s2.42-.29,3.12-.87,1.05-1.33,1.05-2.25c0-.61-.17-1.1-.5-1.49-.33-.39-.8-.69-1.41-.92-.61-.23-1.33-.45-2.18-.65l-1.02-.25c-1.23-.29-2.3-.66-3.21-1.09-.91-.43-1.61-1.01-2.11-1.72-.5-.72-.75-1.64-.75-2.76s.28-2.12.84-2.92c.56-.81,1.34-1.44,2.33-1.88.99-.44,2.16-.66,3.5-.66s2.54.23,3.6.69c1.06.46,1.89,1.14,2.5,2.04s.91,2.03.91,3.39v.99h-2.95v-.99c0-.83-.17-1.5-.51-2.01-.34-.52-.81-.89-1.42-1.13-.61-.24-1.32-.36-2.12-.36-1.18,0-2.09.24-2.75.73-.65.49-.98,1.16-.98,2.03,0,.59.14,1.07.43,1.45s.7.69,1.26.92c.55.24,1.24.45,2.07.63l1.02.25c1.25.28,2.35.63,3.31,1.06.96.43,1.71,1.02,2.26,1.75.55.74.83,1.68.83,2.84s-.29,2.17-.87,3.04c-.58.87-1.4,1.54-2.47,2.03-1.07.49-2.33.73-3.78.73Z" style="fill: #1d1d1b; stroke-width: 0px;"/>
      <path d="M129.64,19.7V3.61h2.78v6.76h6.35V3.61h2.78v16.1h-2.78v-6.81h-6.35v6.81h-2.78Z" style="fill: #1d1d1b; stroke-width: 0px;"/>
      <path d="M149.32,19.7V3.61h2.78v16.1h-2.78Z" style="fill: #1d1d1b; stroke-width: 0px;"/>
      <path d="M159.88,19.7V3.61h10.26v2.51h-7.47v4.23h6.83v2.51h-6.83v4.35h7.59v2.51h-10.37Z" style="fill: #1d1d1b; stroke-width: 0px;"/>
      <path d="M177.26,19.7V3.61h2.78v13.59h7.54v2.51h-10.33Z" style="fill: #1d1d1b; stroke-width: 0px;"/>
      <path d="M193.82,19.7v-2.44h2.16V6.04h-2.16v-2.44h6.55c2.15,0,3.79.54,4.92,1.63,1.13,1.09,1.7,2.72,1.7,4.9v3.04c0,2.18-.57,3.81-1.7,4.9-1.13,1.09-2.78,1.63-4.92,1.63h-6.55ZM198.74,17.2h1.66c1.3,0,2.27-.34,2.9-1.01.63-.67.94-1.65.94-2.92v-3.2c0-1.3-.31-2.29-.94-2.95-.63-.67-1.59-1-2.9-1h-1.66v11.08Z" style="fill: #1d1d1b; stroke-width: 0px;"/>
    </g>
  </g>
</svg>